<svg xmlns="http://www.w3.org/2000/svg"  viewBox="0 0 64 64" width="50px" height="50px"><linearGradient id="Obm~5q9Fnx3OXec4TxKqra" x1="32" x2="32" y1="20" y2="31" gradientUnits="userSpaceOnUse"><stop offset="0" stop-color="#6dc7ff"/><stop offset="1" stop-color="#e6abff"/></linearGradient><path fill="url(#Obm~5q9Fnx3OXec4TxKqra)" d="M35,23c0-1.657-1.343-3-3-3s-3,1.343-3,3c0,0.236,2,8,2,8h2C33,31,35,23.236,35,23z"/><linearGradient id="Obm~5q9Fnx3OXec4TxKqrb" x1="32" x2="32" y1="44" y2="33" gradientTransform="matrix(1 0 0 -1 0 77)" gradientUnits="userSpaceOnUse"><stop offset="0" stop-color="#6dc7ff"/><stop offset="1" stop-color="#e6abff"/></linearGradient><path fill="url(#Obm~5q9Fnx3OXec4TxKqrb)" d="M35,41c0,1.657-1.343,3-3,3s-3-1.343-3-3c0-0.236,2-8,2-8h2C33,33,35,40.764,35,41z"/><linearGradient id="Obm~5q9Fnx3OXec4TxKqrc" x1="48.5" x2="42.5" y1="45" y2="45" gradientTransform="matrix(0 -1 -1 0 85.5 77.5)" gradientUnits="userSpaceOnUse"><stop offset="0" stop-color="#6dc7ff"/><stop offset="1" stop-color="#e6abff"/></linearGradient><path fill="url(#Obm~5q9Fnx3OXec4TxKqrc)" d="M43,29c1.657,0,3,1.343,3,3s-1.343,3-3,3c-0.236,0-8-2-8-2v-2C35,31,42.764,29,43,29z"/><linearGradient id="Obm~5q9Fnx3OXec4TxKqrd" x1="48.5" x2="42.5" y1="62" y2="62" gradientTransform="rotate(-90 19.5 58)" gradientUnits="userSpaceOnUse"><stop offset="0" stop-color="#6dc7ff"/><stop offset="1" stop-color="#e6abff"/></linearGradient><path fill="url(#Obm~5q9Fnx3OXec4TxKqrd)" d="M21,29c-1.657,0-3,1.343-3,3s1.343,3,3,3c0.236,0,8-2,8-2v-2C29,31,21.236,29,21,29z"/><linearGradient id="Obm~5q9Fnx3OXec4TxKqre" x1="32" x2="32" y1="7" y2="57" gradientUnits="userSpaceOnUse"><stop offset="0" stop-color="#1a6dff"/><stop offset="1" stop-color="#c822ff"/></linearGradient><path fill="url(#Obm~5q9Fnx3OXec4TxKqre)" d="M54.325,32C55.847,30.887,58,28.736,58,25.486C58,21.425,55.01,19,50,19	c-1.441,0-3.162,0.587-4.926,1.524C46.249,18.559,47,16.629,47,15c0-3.933-3.062-8-8.184-8c-3.42,0-5.673,2.199-6.818,3.713	C30.853,9.199,28.601,7,25.181,7C20.06,7,17,11.067,17,15c0,1.629,0.751,3.559,1.926,5.524C17.162,19.587,15.441,19,14,19	c-5.01,0-8,2.425-8,6.486c0,3.25,2.152,5.401,3.672,6.514C8.152,33.113,6,35.264,6,38.514C6,42.575,8.99,45,14,45	c1.441,0,3.162-0.587,4.926-1.524C17.751,45.441,17,47.371,17,49c0,3.933,3.06,8,8.181,8c3.42,0,5.672-2.2,6.817-3.715	C33.145,54.8,35.396,57,38.816,57C43.938,57,47,52.933,47,49c0-1.629-0.751-3.559-1.926-5.524C46.838,44.413,48.559,45,50,45	c5.01,0,8-2.425,8-6.486C58,35.264,55.847,33.113,54.325,32z M21,10.501V16h2V9.349c0.602-0.204,1.27-0.323,2-0.34V14h2V9.316	c2.674,0.934,4.088,3.654,4.104,3.687L31.109,13l1.782,0.003C32.912,12.963,34.962,9,38.816,9C42.687,9,45,12.051,45,15	c0,2.653-2.464,6.296-5.297,9.329c-0.793,0.705-1.535,1.437-2.199,2.169C35.223,28.567,33.044,30,32,30s-3.223-1.433-5.504-3.501	c-0.664-0.732-1.406-1.464-2.199-2.169C21.464,21.296,19,17.653,19,15C19,13.364,19.685,11.67,21,10.501z M14,43	c-1.963,0-4.189-0.407-5.296-2H14v-2H8.027C8.014,38.842,8,38.684,8,38.514C8,37.97,8.096,37.468,8.246,37H13v-2H9.376	c1.147-1.367,2.596-2.086,2.621-2.098l-0.002-0.005l0.002-1.799C11.957,31.079,8,29.129,8,25.486C8,21.778,11.263,21,14,21	c2.61,0,6.432,2.501,9.36,5.2c0.465,0.482,0.938,0.948,1.413,1.392c1.673,1.767,2.817,3.452,2.817,4.409s-1.143,2.642-2.817,4.409	c-0.475,0.443-0.948,0.909-1.413,1.392C20.432,40.499,16.61,43,14,43z M43,53.453V48h-2v6.633c-0.607,0.213-1.275,0.339-2,0.358V50	h-2v4.685c-2.677-0.934-4.091-3.657-4.108-3.69l-0.005,0.002l-1.782-0.002C31.084,51.034,29.035,55,25.181,55	C21.166,55,19,51.909,19,49c0-2.653,2.464-6.296,5.297-9.329c0.793-0.705,1.535-1.437,2.199-2.169C28.777,35.433,30.956,34,32,34	s3.223,1.433,5.504,3.501c0.664,0.732,1.406,1.464,2.199,2.169C42.536,42.704,45,46.347,45,49C45,50.632,44.289,52.293,43,53.453z M50,43c-2.61,0-6.432-2.501-9.36-5.2c-0.465-0.482-0.938-0.948-1.413-1.392C37.553,34.642,36.41,32.957,36.41,32	s1.143-2.642,2.817-4.409c0.475-0.443,0.948-0.909,1.413-1.392C43.568,23.501,47.39,21,50,21c1.963,0,4.189,0.407,5.296,2H50v2	h5.973C55.986,25.158,56,25.316,56,25.486c0,0.544-0.096,1.046-0.247,1.514H51v2h3.622c-1.148,1.366-2.599,2.086-2.623,2.098	l0.002,1.806C52.041,32.922,56,34.846,56,38.514C56,42.222,52.737,43,50,43z"/></svg>